<?xml version="1.0" encoding="utf-8"?>
<!-- Generator: Adobe Illustrator 16.0.0, SVG Export Plug-In . SVG Version: 6.00 Build 0)  -->
<!DOCTYPE svg PUBLIC "-//W3C//DTD SVG 1.1//EN" "http://www.w3.org/Graphics/SVG/1.1/DTD/svg11.dtd">
<svg version="1.1" id="Layer_1" xmlns="http://www.w3.org/2000/svg" xmlns:xlink="http://www.w3.org/1999/xlink" x="0px" y="0px"
	 width="213.295px" height="267.332px" viewBox="0 0 213.295 267.332" enable-background="new 0 0 213.295 267.332"
	 xml:space="preserve">
<g>
	<g>
		<path fill="#FFFFFF" d="M106.647,119.386c-32.822,0-59.525,26.703-59.525,59.525s26.703,59.525,59.525,59.525
			s59.525-26.703,59.525-59.525S139.47,119.386,106.647,119.386z M106.647,226.885c-26.453,0-47.974-21.521-47.974-47.974
			s21.521-47.974,47.974-47.974c26.453,0,47.974,21.521,47.974,47.974S133.101,226.885,106.647,226.885z"/>
		<path fill="#FFFFFF" d="M121.099,190.556c-3.169,3.169-8.26,5.217-12.971,5.217c-12.939,0-17.626-8.982-17.699-17.388
			c-0.043-5.085,1.762-9.847,4.952-13.064c3.146-3.173,7.434-4.781,12.747-4.781c4.825,0,9.234,1.713,12.415,4.824l1.39,1.359
			l10.064-9.722l-1.459-1.438c-6.184-6.099-13.933-9.322-22.41-9.322c-9.438,0-17.487,3.077-23.278,8.899
			c-5.798,5.83-9.096,14.313-9.047,23.272c0.08,14.529,8.594,31.496,32.325,31.496c9.121,0,17.124-3.139,23.146-9.077l1.426-1.406
			l-10.179-10.291L121.099,190.556z"/>
	</g>
	<path fill="#FFFFFF" d="M178.78,90.963v-18.83C178.78,32.359,146.422,0,106.647,0C66.874,0,34.515,32.359,34.515,72.133v18.83
		C14.996,93.959,0,110.867,0,131.21v95.401c0,22.453,18.267,40.721,40.72,40.721h131.855c22.453,0,40.72-18.268,40.72-40.721V131.21
		C213.295,110.867,198.299,93.96,178.78,90.963z M106.647,11.635c33.359,0,60.498,27.139,60.498,60.498v18.358h-16.363V72.747
		c0-23.789-19.354-43.143-43.144-43.143c-23.788,0-43.142,19.354-43.142,43.143v17.744H46.149V72.133
		C46.149,38.774,73.289,11.635,106.647,11.635z M139.147,90.491H76.131V72.747c0-17.374,14.135-31.508,31.508-31.508
		c17.374,0,31.509,14.135,31.509,31.508V90.491z M201.661,226.611c0,16.038-13.048,29.086-29.086,29.086H40.72
		c-16.038,0-29.085-13.048-29.085-29.086V131.21c0-16.038,13.047-29.085,29.085-29.085h131.855
		c16.038,0,29.086,13.047,29.086,29.085V226.611z"/>
</g>
</svg>
